<svg width="22" height="22" viewBox="0 0 22 22" fill="none" xmlns="http://www.w3.org/2000/svg">
<path fill-rule="evenodd" clip-rule="evenodd" d="M0 11C0 4.92487 4.92487 0 11 0C17.0751 0 22 4.92487 22 11C22 17.0751 17.0751 22 11 22C4.92487 22 0 17.0751 0 11ZM10.9999 4.4C8.56985 4.4 6.5999 6.36995 6.5999 8.8C6.5999 11.23 8.56985 13.2 10.9999 13.2C13.4299 13.2 15.3999 11.23 15.3999 8.8C15.3999 6.36995 13.4299 4.4 10.9999 4.4ZM16.6227 15.3971C17.4562 15.9339 17.4155 17.104 16.6564 17.7417C15.1269 19.0263 13.1539 19.8 11.0001 19.8C8.86061 19.8 6.89937 19.0365 5.37412 17.767C4.60824 17.1295 4.56766 15.9535 5.40486 15.4132C5.66548 15.245 5.94931 15.0976 6.25734 14.9707C7.49668 14.4597 9.07962 14.3 11 14.3C12.9301 14.3 14.522 14.4495 15.7645 14.9549C16.075 15.0812 16.3607 15.2285 16.6227 15.3971Z" fill="#E20000"/>
</svg>
