<svg width="17" height="21" viewBox="0 0 17 21" fill="none" xmlns="http://www.w3.org/2000/svg">
<path d="M8.5 0C4.1507 0 0.625 3.5257 0.625 7.875C0.625 9.73809 1.44597 11.3764 2.35455 12.7969L7.9645 20.7231C8.08755 20.897 8.28737 21 8.5 21C8.71262 21 8.91245 20.897 9.0355 20.7231L14.6455 12.7969C15.5137 11.6281 16.375 9.73809 16.375 7.875C16.375 3.5257 12.8493 0 8.5 0ZM8.5 12.4688C5.96294 12.4688 3.90625 10.4121 3.90625 7.875C3.90625 5.33794 5.96294 3.28125 8.5 3.28125C11.0371 3.28125 13.0938 5.33794 13.0938 7.875C13.0938 10.4121 11.0371 12.4688 8.5 12.4688Z" fill="#036DFF"/>
<path d="M8.5 3.9375C6.32552 3.9375 4.5625 5.70052 4.5625 7.875C4.5625 10.0495 6.32552 11.8125 8.5 11.8125C10.6745 11.8125 12.4375 10.0495 12.4375 7.875C12.4375 5.70052 10.6745 3.9375 8.5 3.9375ZM8.5 11.1562C6.68777 11.1562 5.21875 9.68691 5.21875 7.875C5.21875 6.06309 6.68777 4.59375 8.5 4.59375C10.3122 4.59375 11.7812 6.06309 11.7812 7.875C11.7812 9.68691 10.3122 11.1562 8.5 11.1562Z" fill="#036DFF"/>
</svg>
