<svg width="24" height="16" viewBox="0 0 24 16" fill="none" xmlns="http://www.w3.org/2000/svg">
<path d="M8.84369 0.706055H22.0906C22.4542 0.706055 22.7188 1.04771 22.6195 1.40036L21.0877 7.26333C21.0215 7.50581 20.8011 7.67112 20.5587 7.67112H8.70042C8.06121 7.67112 7.53223 8.18912 7.53223 8.83939C7.53223 9.47858 8.05019 10.0076 8.70042 10.0076H21.1317" stroke="#42A38E" stroke-miterlimit="10" stroke-linecap="round" stroke-linejoin="round"/>
<path d="M7.54296 5.42295L6.3858 1.11382C6.31968 0.871367 6.09925 0.706055 5.85679 0.706055H2.50651C1.87834 0.706055 1.36035 1.213 1.36035 1.85221C1.36035 2.48039 1.86732 2.99837 2.50651 2.99837H5.22864" stroke="#42A38E" stroke-miterlimit="10" stroke-linecap="round" stroke-linejoin="round"/>
<path d="M9.98115 14.0699C9.98115 14.0387 10.0065 14.0133 10.0378 14.0133C10.0692 14.0133 10.0945 14.0388 10.0945 14.0699C10.0945 14.1013 10.0691 14.1267 10.0378 14.1267C10.0066 14.1267 9.98115 14.1014 9.98115 14.0699Z" fill="#42A38E" stroke="black" stroke-width="2.56"/>
<path d="M17.9381 14.0699C17.9381 14.0386 17.9634 14.0133 17.9947 14.0133C18.0261 14.0133 18.0514 14.0388 18.0514 14.0699C18.0514 14.1013 18.026 14.1267 17.9947 14.1267C17.9635 14.1267 17.9381 14.1014 17.9381 14.0699Z" fill="#42A38E" stroke="black" stroke-width="2.56"/>
</svg>
