<svg width="37" height="33" viewBox="0 0 37 33" fill="none" xmlns="http://www.w3.org/2000/svg">
<path d="M35.375 12.6875H28.3438V1.4375C28.3438 0.59375 27.7812 0.03125 26.9375 0.03125H1.625C0.78125 0.03125 0.21875 0.59375 0.21875 1.4375V26.75C0.21875 29.8438 2.75 32.375 5.84375 32.375H29.75C29.8906 32.375 30.0312 32.375 30.1719 32.2344C30.4531 32.2344 30.7344 32.375 31.1562 32.375C34.25 32.375 36.7812 29.8438 36.7812 26.75V14.0938C36.7812 13.25 36.2188 12.6875 35.375 12.6875ZM10.0625 15.5H7.25C6.40625 15.5 5.84375 14.9375 5.84375 14.0938C5.84375 13.25 6.40625 12.6875 7.25 12.6875H10.0625C10.9062 12.6875 11.4688 13.25 11.4688 14.0938C11.4688 14.9375 10.9062 15.5 10.0625 15.5ZM15.6875 9.875H7.25C6.40625 9.875 5.84375 9.3125 5.84375 8.46875C5.84375 7.625 6.40625 7.0625 7.25 7.0625H15.6875C16.5312 7.0625 17.0938 7.625 17.0938 8.46875C17.0938 9.3125 16.5312 9.875 15.6875 9.875ZM33.9688 26.75C33.9688 28.2969 32.7031 29.5625 31.1562 29.5625C30.875 29.5625 30.5938 29.5625 30.3125 29.4219C29.4688 29.1406 28.9063 28.4375 28.625 27.7344V27.5938C28.3438 27.3125 28.3438 27.0312 28.3438 26.75V15.5H33.9688V26.75Z" fill="#AEAEAE"/>
</svg>
