<svg width="30" height="31" viewBox="0 0 30 31" fill="none" xmlns="http://www.w3.org/2000/svg">
<path d="M0 7.44686C0 5.43899 -1.08654e-07 4.43508 0.323283 3.64147C0.767739 2.55043 1.63344 1.68473 2.72447 1.24028C3.51808 0.916992 4.522 0.916992 6.52986 0.916992C8.53771 0.916992 9.54164 0.916992 10.3352 1.24028C11.4263 1.68473 12.292 2.55043 12.7365 3.64147C13.0597 4.43508 13.0597 5.43899 13.0597 7.44686C13.0597 9.4547 13.0597 10.4586 12.7365 11.2522C12.292 12.3433 11.4263 13.209 10.3352 13.6535C9.54164 13.9767 8.53771 13.9767 6.52986 13.9767C4.522 13.9767 3.51808 13.9767 2.72447 13.6535C1.63344 13.209 0.767739 12.3433 0.323283 11.2522C-1.08654e-07 10.4586 0 9.4547 0 7.44686Z" fill="#AEAEAE"/>
<path d="M0 23.5542C0 21.5464 -1.08654e-07 20.5425 0.323283 19.7489C0.767739 18.6579 1.63344 17.7921 2.72447 17.3477C3.51808 17.0244 4.522 17.0244 6.52986 17.0244C8.53771 17.0244 9.54164 17.0244 10.3352 17.3477C11.4263 17.7921 12.292 18.6579 12.7365 19.7489C13.0597 20.5425 13.0597 21.5464 13.0597 23.5542C13.0597 25.5621 13.0597 26.566 12.7365 27.3596C12.292 28.4507 11.4263 29.3164 10.3352 29.7608C9.54164 30.0841 8.53771 30.0841 6.52986 30.0841C4.522 30.0841 3.51808 30.0841 2.72447 29.7608C1.63344 29.3164 0.767739 28.4507 0.323283 27.3596C-1.08654e-07 26.566 0 25.5621 0 23.5542Z" fill="#AEAEAE"/>
<path d="M16.1074 23.5542C16.1074 21.5464 16.1074 20.5425 16.4307 19.7489C16.8752 18.6579 17.7409 17.7921 18.8319 17.3477C19.6255 17.0244 20.6294 17.0244 22.6373 17.0244C24.6452 17.0244 25.6492 17.0244 26.4426 17.3477C27.5338 17.7921 28.3994 18.6579 28.8439 19.7489C29.1672 20.5425 29.1672 21.5464 29.1672 23.5542C29.1672 25.5621 29.1672 26.566 28.8439 27.3596C28.3994 28.4507 27.5338 29.3164 26.4426 29.7608C25.6492 30.0841 24.6452 30.0841 22.6373 30.0841C20.6294 30.0841 19.6255 30.0841 18.8319 29.7608C17.7409 29.3164 16.8752 28.4507 16.4307 27.3596C16.1074 26.566 16.1074 25.5621 16.1074 23.5542Z" fill="#AEAEAE"/>
<path fill-rule="evenodd" clip-rule="evenodd" d="M21.543 11.8223C21.543 12.4263 22.0325 12.9161 22.6367 12.9161C23.2408 12.9161 23.7305 12.4263 23.7305 11.8223V8.54102H27.0117C27.6158 8.54102 28.1055 8.05132 28.1055 7.44727C28.1055 6.84321 27.6158 6.35352 27.0117 6.35352H23.7305V3.07227C23.7305 2.46821 23.2408 1.97852 22.6367 1.97852C22.0325 1.97852 21.543 2.46821 21.543 3.07227V6.35352H18.2617C17.6575 6.35352 17.168 6.84321 17.168 7.44727C17.168 8.05132 17.6575 8.54102 18.2617 8.54102H21.543V11.8223Z" fill="#AEAEAE"/>
</svg>
