<svg width="16" height="16" viewBox="0 0 16 16" fill="none" xmlns="http://www.w3.org/2000/svg">
<path d="M11.7332 11.7337H10.6665V10.667H11.7332V11.7337Z" fill="black"/>
<path d="M8.5332 11.7337H9.59987V10.667H8.5332V11.7337Z" fill="black"/>
<path d="M13.8665 11.7337H12.7998V10.667H13.8665V11.7337Z" fill="black"/>
<path fill-rule="evenodd" clip-rule="evenodd" d="M3.2 6.4V3.73333C3.2 1.67147 4.87147 0 6.93333 0C8.9952 0 10.6667 1.67147 10.6667 3.73333V6.4H12.2667C13.1503 6.4 13.8667 7.11634 13.8667 8V8.58668C15.0838 8.83375 16 9.90989 16 11.2C16 12.4901 15.0838 13.5663 13.8667 13.8133V14.4C13.8667 15.2836 13.1503 16 12.2667 16H1.6C0.716345 16 0 15.2836 0 14.4V8C0 7.11634 0.716345 6.4 1.6 6.4H3.2ZM4.26667 3.73333C4.26667 2.26058 5.46058 1.06667 6.93333 1.06667C8.40609 1.06667 9.6 2.26058 9.6 3.73333V6.4H4.26667V3.73333ZM9.06667 9.6C8.18301 9.6 7.46667 10.3163 7.46667 11.2C7.46667 12.0836 8.18301 12.8 9.06667 12.8H13.3333C14.217 12.8 14.9333 12.0836 14.9333 11.2C14.9333 10.3163 14.217 9.6 13.3333 9.6H9.06667Z" fill="black"/>
</svg>
