<svg width="176" height="170" viewBox="0 0 176 170" fill="none" xmlns="http://www.w3.org/2000/svg">
<path d="M8.09341 111.463C12.1991 111.463 15.5295 114.789 15.5295 118.895C15.5295 123.001 12.1991 126.327 8.09341 126.327C3.98774 126.327 0.661377 123.001 0.661377 118.895C0.661377 114.789 3.98774 111.463 8.09341 111.463Z" fill="#EF3E5C"/>
<path d="M10.1442 116.59C12.2651 116.59 14.174 117.482 15.5291 118.906C15.5291 118.902 15.5295 118.898 15.5295 118.895C15.5295 114.789 12.1991 111.463 8.09341 111.463C3.98774 111.463 0.661377 114.789 0.661377 118.895C0.661377 120.881 1.44437 122.68 2.71257 124.013C2.71749 119.911 6.0414 116.59 10.1442 116.59Z" fill="#E42A53"/>
<path d="M56.217 78.4658L43.1863 87.9363L48.1656 103.256L35.1309 93.7897L22.1002 103.256L27.0754 87.9363L14.0443 78.4658H30.1557L35.1309 63.1465L40.1102 78.4658H56.217Z" fill="#FFD55E"/>
<path d="M32.8504 83.5928L37.3117 69.8562L35.1309 63.1465L30.1557 78.4658H14.0443L21.099 83.5928H32.8504Z" fill="#EABC4B"/>
<path d="M109.734 16.0603L96.6995 25.5271L101.679 40.8461L88.644 31.3801L75.6133 40.8461L80.5922 25.5271L67.5579 16.0603H83.6684L88.644 0.737305L93.6233 16.0603H109.734Z" fill="#FFD55E"/>
<path d="M86.4029 19.7763L90.6152 6.8031L88.644 0.737305L83.6684 16.0603H67.5579L72.6746 19.7763H86.4029Z" fill="#EABC4B"/>
<path d="M161.955 78.4658L148.925 87.9363L153.9 103.256L140.869 93.7897L127.834 103.256L132.814 87.9363L119.783 78.4658H135.89L140.869 63.1465L145.849 78.4658H161.955Z" fill="#FFD55E"/>
<path d="M138.693 82.2257L142.882 69.3382L140.869 63.1465L135.89 78.4658H119.783L124.956 82.2257H138.693Z" fill="#EABC4B"/>
<path d="M167.907 111.463C172.012 111.463 175.339 114.789 175.339 118.895C175.339 123.001 172.012 126.327 167.907 126.327C163.801 126.327 160.471 123.001 160.471 118.895C160.471 114.789 163.801 111.463 167.907 111.463Z" fill="#EF3E5C"/>
<path d="M169.391 116.077C171.823 116.077 173.975 117.249 175.331 119.054C175.332 119.001 175.339 118.949 175.339 118.895C175.339 114.789 172.012 111.463 167.907 111.463C163.801 111.463 160.471 114.789 160.471 118.895C160.471 120.568 161.03 122.106 161.963 123.348C162.05 119.317 165.34 116.077 169.391 116.077Z" fill="#E42A53"/>
<path d="M167.907 144.911H160.471V152.343H167.907V144.911Z" fill="#415A6B"/>
<path d="M145.606 37.1309H138.174V44.5629H145.606V37.1309Z" fill="#415A6B"/>
<path d="M52.6937 14.8301H45.2617V22.2662H52.6937V14.8301Z" fill="#415A6B"/>
<path d="M37.8256 44.5625H30.3936V51.9986H37.8256V44.5625Z" fill="#415A6B"/>
<path d="M15.5295 144.911H8.09338V152.343H15.5295V144.911Z" fill="#415A6B"/>
<path d="M71.2738 169.262C70.7492 169.262 70.2242 169.062 69.8239 168.662C69.0233 167.861 69.0229 166.562 69.8239 165.762C81.4789 154.105 83.2233 138.642 75.0083 119.802C68.7284 105.401 58.714 94.3735 58.6135 94.2635C57.849 93.4285 57.9056 92.1316 58.7411 91.3666C59.5762 90.6021 60.8727 90.6583 61.638 91.4929C62.0646 91.9585 72.1639 103.066 78.7288 118.072C87.605 138.362 85.5288 155.855 72.7245 168.662C72.3234 169.062 71.7988 169.262 71.2738 169.262Z" fill="#415A6B"/>
<path d="M52.6925 169.263C52.414 169.263 52.1318 169.206 51.8611 169.086C50.8263 168.626 50.36 167.414 50.8197 166.379C56.6891 153.169 56.1099 140.844 49.1 129.745C43.836 121.411 36.8092 116.962 36.7387 116.918C35.7781 116.318 35.4861 115.053 36.0865 114.092C36.6866 113.132 37.9519 112.84 38.9125 113.44C39.232 113.639 46.8088 118.438 52.5678 127.555C57.9216 136.031 62.6142 149.936 54.5682 168.044C54.2281 168.809 53.4784 169.263 52.6925 169.263Z" fill="#415A6B"/>
<path d="M30.3916 169.262C30.0467 169.262 29.6972 169.175 29.3756 168.992C28.3925 168.43 28.0508 167.177 28.6128 166.194C33.1823 158.199 34.526 150.933 32.6081 144.596C29.986 135.934 22.1233 131.917 22.0441 131.877C21.031 131.371 20.6204 130.139 21.1274 129.126C21.6339 128.112 22.8656 127.701 23.8787 128.209C24.2663 128.403 33.4058 133.074 36.5337 143.408C38.7912 150.866 37.3245 159.217 32.1737 168.229C31.7956 168.891 31.1032 169.262 30.3916 169.262Z" fill="#415A6B"/>
<path d="M104.726 169.262C104.202 169.262 103.676 169.061 103.276 168.661C90.4717 155.854 88.3955 138.361 97.2716 118.071C103.837 103.065 113.935 91.9573 114.362 91.4918C115.127 90.6571 116.424 90.6014 117.259 91.3655C118.094 92.1304 118.151 93.4273 117.387 94.2624C117.286 94.3723 107.272 105.399 100.992 119.8C92.7771 138.64 94.5215 154.103 106.177 165.76C106.978 166.561 106.978 167.86 106.177 168.661C105.776 169.061 105.251 169.262 104.726 169.262Z" fill="#415A6B"/>
<path d="M123.308 169.263C122.522 169.263 121.772 168.809 121.432 168.044C113.386 149.936 118.079 136.031 123.433 127.555C129.192 118.438 136.768 113.639 137.088 113.44C138.047 112.84 139.314 113.131 139.914 114.092C140.514 115.052 140.222 116.316 139.263 116.917C139.166 116.978 132.055 121.516 126.819 129.875C119.887 140.942 119.336 153.224 125.181 166.379C125.64 167.414 125.174 168.626 124.139 169.086C123.868 169.206 123.586 169.263 123.308 169.263Z" fill="#415A6B"/>
<path d="M145.609 169.263C144.896 169.263 144.205 168.891 143.826 168.229C138.675 159.217 137.209 150.866 139.466 143.408C142.594 133.074 151.733 128.402 152.121 128.208C153.135 127.701 154.366 128.113 154.872 129.125C155.378 130.137 154.97 131.367 153.96 131.874C153.863 131.924 145.964 136.017 143.377 144.643C141.48 150.968 142.829 158.219 147.386 166.193C147.948 167.177 147.607 168.429 146.623 168.991C146.303 169.176 145.953 169.263 145.609 169.263Z" fill="#415A6B"/>
<path d="M97.2888 94.9298C96.9984 94.9298 96.7031 94.8679 96.423 94.7371C95.3964 94.258 94.953 93.0374 95.4316 92.0112L121.448 36.2631C121.927 35.2369 123.148 34.7931 124.174 35.2718C125.2 35.7504 125.644 36.9711 125.165 37.9973L99.1489 93.7453C98.8007 94.4918 98.0608 94.9298 97.2888 94.9298Z" fill="#415A6B"/>
<path d="M82.4272 94.9298C81.6549 94.9298 80.9154 94.4918 80.5675 93.7457L54.5513 37.9977C54.0723 36.9715 54.5161 35.7509 55.5423 35.2722C56.5685 34.7927 57.7891 35.2369 58.2682 36.2636L84.2844 92.0116C84.7634 93.0378 84.3197 94.2584 83.2934 94.7375C83.0129 94.8679 82.7176 94.9298 82.4272 94.9298Z" fill="#415A6B"/>
<path d="M89.858 80.065C88.7252 80.065 87.8073 79.1467 87.8073 78.0143V51.998C87.8073 50.8656 88.7252 49.9473 89.858 49.9473C90.9909 49.9473 91.9088 50.8656 91.9088 51.998V78.0143C91.9088 79.1467 90.9909 80.065 89.858 80.065Z" fill="#415A6B"/>
</svg>
