<svg width="16" height="16" viewBox="0 0 16 16" fill="none" xmlns="http://www.w3.org/2000/svg">
<g clip-path="url(#clip0_6_431)">
<path d="M8.3988 11.0515C8.73258 11.0515 9.00317 10.7812 9.00317 10.4476C9.00317 10.1141 8.73258 9.84375 8.3988 9.84375C8.06502 9.84375 7.79443 10.1141 7.79443 10.4476C7.79443 10.7812 8.06502 11.0515 8.3988 11.0515Z" fill="black"/>
<path d="M10.4235 14.2519H2.89916C2.23266 14.2519 1.69042 13.7101 1.69042 13.0441V8.09216C1.69042 7.42619 2.23266 6.88437 2.89916 6.88437H11.602C11.7397 6.88437 11.8488 6.89651 11.9359 6.92142C12.2567 7.01328 12.5914 6.82782 12.6833 6.50721C12.7752 6.1866 12.5896 5.85223 12.2688 5.76034C12.072 5.704 11.8539 5.67661 11.602 5.67661H10.8757V3.54686C10.8757 1.59111 9.24897 0 7.24948 0C5.24999 0 3.62328 1.59111 3.62328 3.54686V5.67661H2.89916C1.56617 5.67661 0.481689 6.76024 0.481689 8.09219V13.0441C0.481689 14.3761 1.56617 15.4597 2.89916 15.4597H10.4235C10.7573 15.4597 11.0279 15.1894 11.0279 14.8558C11.0279 14.5223 10.7573 14.2519 10.4235 14.2519ZM4.83201 3.54686C4.83201 2.25709 5.91649 1.20779 7.24948 1.20779C8.58247 1.20779 9.66695 2.25709 9.66695 3.54686V5.67661H4.83201V3.54686Z" fill="black"/>
<path d="M6.13244 11.0515C6.46623 11.0515 6.73681 10.7812 6.73681 10.4476C6.73681 10.1141 6.46623 9.84375 6.13244 9.84375C5.79866 9.84375 5.52808 10.1141 5.52808 10.4476C5.52808 10.7812 5.79866 11.0515 6.13244 11.0515Z" fill="black"/>
<path d="M14.9899 10.0008C14.9767 8.82961 14.019 7.88086 12.8438 7.88086C11.6604 7.88086 10.6975 8.84292 10.6975 10.0254C10.6975 10.359 10.9681 10.6293 11.3019 10.6293C11.6357 10.6293 11.9062 10.359 11.9062 10.0254C11.9062 9.5089 12.3268 9.08865 12.8438 9.08865C13.3608 9.08865 13.7813 9.5089 13.7813 10.0254C13.7813 10.0309 13.7814 10.0364 13.7815 10.0418C13.7753 10.4116 13.553 10.7427 13.2115 10.8883C12.621 11.1403 12.2394 11.7223 12.2394 12.3709V12.8932C12.2394 13.2267 12.51 13.4971 12.8438 13.4971C13.1776 13.4971 13.4482 13.2267 13.4482 12.8932V12.3709C13.4482 12.2067 13.5416 12.0608 13.6861 11.9992C14.4787 11.6611 14.9906 10.8863 14.9904 10.0253C14.9904 10.0171 14.9902 10.009 14.9899 10.0008Z" fill="black"/>
<path d="M12.8409 15.4597C13.1747 15.4597 13.4453 15.1894 13.4453 14.8558C13.4453 14.5223 13.1747 14.252 12.8409 14.252C12.5072 14.252 12.2366 14.5223 12.2366 14.8558C12.2366 15.1894 12.5072 15.4597 12.8409 15.4597Z" fill="black"/>
<path d="M3.86609 11.0515C4.19987 11.0515 4.47045 10.7812 4.47045 10.4476C4.47045 10.1141 4.19987 9.84375 3.86609 9.84375C3.5323 9.84375 3.26172 10.1141 3.26172 10.4476C3.26172 10.7812 3.5323 11.0515 3.86609 11.0515Z" fill="black"/>
</g>
<defs>
<clipPath id="clip0_6_431">
<rect width="15.4718" height="15.4597" fill="white"/>
</clipPath>
</defs>
</svg>
