<svg width="17" height="17" viewBox="0 0 17 17" fill="none" xmlns="http://www.w3.org/2000/svg">
<path d="M13.843 6.68642V6.12861C13.843 3.06586 11.4509 0.583008 8.5 0.583008C5.54911 0.583008 3.15694 3.06586 3.15694 6.12861V6.68642C3.15694 7.35587 2.96603 8.01027 2.60826 8.56728L1.73154 9.9322C0.930733 11.1789 1.54208 12.8736 2.93487 13.2678C6.57842 14.2992 10.4216 14.2992 14.0651 13.2678C15.458 12.8736 16.0693 11.1789 15.2684 9.9322L14.3917 8.56728C14.034 8.01027 13.843 7.35587 13.843 6.68642Z" stroke="#42A38E"/>
<path d="M4.9375 14.041C5.45607 15.4247 6.85528 16.416 8.5 16.416C10.1447 16.416 11.544 15.4247 12.0625 14.041" stroke="#42A38E" stroke-linecap="round"/>
</svg>
