<svg width="16" height="14" viewBox="0 0 16 14" fill="none" xmlns="http://www.w3.org/2000/svg">
<path fill-rule="evenodd" clip-rule="evenodd" d="M9.27549 0.362305C12.9893 0.362305 16 3.37297 16 7.08681C16 10.8007 12.9893 13.8113 9.27549 13.8113C7.4517 13.8113 5.79748 13.0853 4.58611 11.9064L5.62822 10.8354C6.57039 11.7523 7.857 12.317 9.27549 12.317C12.164 12.317 14.5057 9.97536 14.5057 7.08681C14.5057 4.19827 12.164 1.85664 9.27549 1.85664C6.38695 1.85664 4.04532 4.19827 4.04532 7.08681C4.04532 7.22838 4.05095 7.36864 4.06199 7.50738L5.53966 6.03016L6.59631 7.08681L3.29816 10.385L0 7.08681L1.05665 6.03016L2.56596 7.53916C2.55603 7.38966 2.55099 7.23883 2.55099 7.08681C2.55099 3.37297 5.56165 0.362305 9.27549 0.362305ZM10.0227 4.09814V7.43051L11.9279 8.70816L11.1061 9.94846L8.52833 8.23745V4.09814H10.0227Z" fill="#FFA500"/>
</svg>
