<svg width="16" height="14" viewBox="0 0 16 14" fill="none" xmlns="http://www.w3.org/2000/svg">
<path d="M12.521 8.33611V2.09261C12.521 1.47561 12.021 0.97461 11.403 0.97461H1.61751C1.00001 0.97411 0.499512 1.47511 0.499512 2.09261V8.33611C0.499512 8.95361 1.00001 9.45411 1.61751 9.45411H3.48201V12.0226L6.33401 9.45411H11.4025C12.021 9.45411 12.521 8.95361 12.521 8.33611ZM14.3825 3.42911H12.9835C12.9835 3.42911 12.9835 8.41511 12.9835 8.88361C12.9835 9.35211 12.3755 9.95461 11.907 9.95461C11.4385 9.95461 6.43451 9.98211 6.43451 9.98211C6.43451 10.5996 6.93501 10.9751 7.55251 10.9751H9.70701L12.518 13.5261L12.5145 10.9751H14.3825C15.0005 10.9751 15.5005 10.5996 15.5005 9.98211V4.51611C15.5005 3.89911 15.0005 3.42911 14.3825 3.42911Z" fill="#FF9700"/>
</svg>
