<svg width="17" height="17" viewBox="0 0 17 17" fill="none" xmlns="http://www.w3.org/2000/svg">
<path fill-rule="evenodd" clip-rule="evenodd" d="M11.125 3.90625C11.125 2.81894 12.0065 1.9375 13.0938 1.9375C14.181 1.9375 15.0625 2.81894 15.0625 3.90625C15.0625 4.99356 14.181 5.875 13.0938 5.875C12.0065 5.875 11.125 4.99356 11.125 3.90625ZM13.0938 0.625C11.2815 0.625 9.8125 2.09406 9.8125 3.90625C9.8125 4.12705 9.83429 4.34274 9.87585 4.55132L6.55381 6.56132C5.9567 5.74726 4.99319 5.21875 3.90625 5.21875C2.09406 5.21875 0.625 6.68781 0.625 8.5C0.625 10.3122 2.09406 11.7812 3.90625 11.7812C5.0877 11.7812 6.12332 11.1568 6.70109 10.22L9.88828 12.3895C9.83866 12.6164 9.8125 12.852 9.8125 13.0938C9.8125 14.906 11.2815 16.375 13.0938 16.375C14.906 16.375 16.375 14.906 16.375 13.0938C16.375 11.2815 14.906 9.8125 13.0938 9.8125C11.999 9.8125 11.0294 10.3487 10.4333 11.1728L7.15784 8.94319C7.17735 8.79829 7.1875 8.65032 7.1875 8.5C7.1875 8.24634 7.15871 7.99941 7.10429 7.76229L10.3941 5.77183C10.9863 6.62721 11.9746 7.1875 13.0938 7.1875C14.906 7.1875 16.375 5.71844 16.375 3.90625C16.375 2.09406 14.906 0.625 13.0938 0.625ZM11.125 13.0938C11.125 12.0065 12.0065 11.125 13.0938 11.125C14.181 11.125 15.0625 12.0065 15.0625 13.0938C15.0625 14.181 14.181 15.0625 13.0938 15.0625C12.0065 15.0625 11.125 14.181 11.125 13.0938ZM1.9375 8.5C1.9375 7.41272 2.81894 6.53125 3.90625 6.53125C4.99356 6.53125 5.875 7.41272 5.875 8.5C5.875 9.58727 4.99356 10.4688 3.90625 10.4688C2.81894 10.4688 1.9375 9.58727 1.9375 8.5Z" fill="#158B73"/>
</svg>
