<svg width="155" height="155" viewBox="0 0 155 155" fill="none" xmlns="http://www.w3.org/2000/svg">
<path d="M43.2863 65.6511V11.645H103.676V98.0358H51.9388C51.8213 98.9521 51.5812 99.8684 51.1925 100.769C50.2141 103.046 48.4734 104.899 46.3288 106.171C45.7651 106.504 45.1754 106.798 44.5648 107.048L46.3367 107.632C48.9432 108.487 51.0672 110.007 52.5233 111.88C53.7082 113.401 54.4518 115.158 54.6918 117H109.49C110.067 117 110.56 116.804 110.941 116.476C111.316 116.143 111.541 115.71 111.541 115.208V1.79376C111.541 1.2876 111.316 0.859195 110.941 0.526518C110.56 0.195957 110.067 0.00238004 109.49 0H37.4726C36.8959 0.00238004 36.4027 0.195957 36.0219 0.526518C35.6459 0.859195 35.4243 1.28787 35.4219 1.79376V62.7794L40.7969 64.5436C41.687 64.8398 42.5165 65.2134 43.2863 65.6511ZM73.4813 111.265C71.4954 111.265 69.8885 109.856 69.8885 108.124C69.8885 106.392 71.4957 104.988 73.4813 104.988C75.4642 104.988 77.0742 106.392 77.0742 108.124C77.0742 109.856 75.4642 111.265 73.4813 111.265Z" fill="#42A38E"/>
<path d="M8.3105 83.9941C6.3265 82.1335 3.19257 82.2322 1.33689 84.2212C-0.528662 86.2052 -0.429955 89.3292 1.55898 91.1948L27.7705 115.728C28.7181 116.617 29.9322 117.061 31.1462 117.061C32.3603 117.061 33.5695 116.617 34.522 115.728L87.2757 66.375C89.2646 64.5095 89.3683 61.3854 87.5076 59.3965C85.6372 57.4125 82.523 57.3039 80.5291 59.1645L31.1462 105.364L8.3105 83.9941Z" fill="#42A38E"/>
</svg>
